{"title":"The Red Skulls 2005 DVDRip Xvid AC3 LKRG ","uid":10141142,"size":730572569,"categoryP":"video","categoryS":"movies","magnet":"?xt=urn:btih:3d254f4324d9aec0a2f94454d560180e10195cda&amp;dn=The+Red+Skulls+2005+DVDRip+Xvid+AC3+LKRG+&amp;tr=udp%3A%2F%2Ftracker.openbittorrent.com%3A80&amp;tr=udp%3A%2F%2Fopen.demonii.com%3A1337&amp;tr=udp%3A%2F%2Ftracker.coppersurfer.tk%3A6969&amp;tr=udp%3A%2F%2Fexodus.desync.com%3A6969","seeders":0,"leechers":2,"uploader":".BONE.","files":2,"time":1399998926,"description":"Runtime ..........: 1h 21mn\nFile Size ........: 697 MiB\nResolution .......: 720 x 368 &lt;a href=&quot;\nhttp://www.imdb.com/title/tt0784832/&quot; rel=&quot;nofollow&quot; target=&quot;_NEW&quot;&gt;\nhttp://www.imdb.com/title/tt0784832/&lt;/a&gt;\nGenre ............: Horror\nLanguage .........: English\nSubtitles ........: None\nComplete name : The Red Skulls 2005 DVDRip Xvid AC3 LKRGTRSkulls_LKRG.avi\nFormat : AVI\nFormat/Info : Audio Video Interleave\nFile size : 697 MiB\nDuration : 1h 21mn\nOverall bit rate : 1 200 Kbps\nWriting application : VirtualDubMod 1.5.10.2 (build 2540/release)\nWriting library : VirtualDubMod build 2540/release\nVideo\nID : 0\nFormat : MPEG-4 Visual\nFormat profile : Advanced Simple@L5\nFormat settings, BVOP : 2\nFormat settings, QPel : No\nFormat settings, GMC : No warppoints\nFormat settings, Matrix : Default (H.263)\nMuxing mode : Packed bitstream\nCodec ID : XVID\nCodec ID/Hint : XviD\nDuration : 1h 21mn\nBit rate : 965 Kbps\nWidth : 720 pixels\nHeight : 368 pixels\nDisplay aspect ratio : 16:9\nFrame rate : 29.970 fps\nColor space : YUV\nChroma subsampling : 4:2:0\nBit depth : 8 bits\nScan type : Progressive\nCompression mode : Lossy\nBits/(Pixel*Frame) : 0.121\nStream size : 560 MiB (80%)\nWriting library : XviD 1.2.1 (UTC 2008-12-04)\nAudio\nID : 1\nFormat : AC-3\nFormat/Info : Audio Coding 3\nMode extension : CM (complete main)\nFormat settings, Endianness : Big\nCodec ID : 2000\nDuration : 1h 21mn\nBit rate mode : Constant\nBit rate : 224 Kbps\nChannel(s) : 2 channels\nChannel positions : Front: L R\nSampling rate : 48.0 KHz\nBit depth : 16 bits\nCompression mode : Lossy\nStream size : 130 MiB (19%)\nAlignment : Split accross interleaves\nInterleave, duration : 33 ms (1.00 video frame)\nInterleave, preload duration : 500 ms","torrent":{"xt":"urn:btih:3d254f4324d9aec0a2f94454d560180e10195cda","amp;dn":"The+Red+Skulls+2005+DVDRip+Xvid+AC3+LKRG+","amp;tr":["udp%3A%2F%2Ftracker.openbittorrent.com%3A80","udp%3A%2F%2Fopen.demonii.com%3A1337","udp%3A%2F%2Ftracker.coppersurfer.tk%3A6969","udp%3A%2F%2Fexodus.desync.com%3A6969"],"infoHash":"3d254f4324d9aec0a2f94454d560180e10195cda","infoHashBuffer":{"type":"Buffer","data":[61,37,79,67,36,217,174,192,162,249,68,84,213,96,24,14,16,25,92,218]},"announce":[],"urlList":[]}}